<svg xmlns="http://www.w3.org/2000/svg" width="118" height="118"><rect fill="#d33c43" width="117.972" height="117.972" rx="58.986"/><path d="M27.029 34.702c.213-.162 1.756 1.356 4.577 3.177 2.626 1.859 6.305 3.935 10.98 5.032 3.359.789 6.636 1.215 9.805 1.627 6.144.798 11.449 1.488 15.163 4.531 2.455 2.012 2.864 4.636 3.227 6.953.4 2.559.777 4.975 3.903 5.697.25.058.505.073.766.05 1.393-.122 2.926-1.313 4.661-2.658l1.395-1.063c2.017-1.328 4.251-2.472 6.678-2.183 4.566.544 4.583 4.073 4.767 4.881v-.003c.768.603 2.45 1.655 2.329 1.925-.061.091-2.047-.011-2.896.206-9.905 2.528-6.422 12.901-14.599 19.221-6.834 5.284-18.516 5.611-20.124 4.893-.554-.248 1.684-1.416 1.152-1.516-6.51 1.407-5.082 15.106-7.21 16.643-.69.422-2.433-.321-3.432-1.165-.492-.561-.569-1.054-.236-1.507l2.289-3.189c.03-.041.041-.093.033-.143a.19.19 0 0 0-.077-.124c-.085-.061-.204-.042-.266.043l-2.723 3.796c-.879-.155-2.755-1.671-2.878-3.445.032-.007.063-.019.092-.04l3.448-2.614c.101-.076.12-.222.044-.322a.23.23 0 0 0-.321-.044l-3.448 2.615a.24.24 0 0 0-.077.105c-1.003-.265-2.251-1.768-2.169-2.954.009-.001.017.002.025.001.03-.003.063-.012.092-.028l3.784-2.095c.111-.062.151-.2.09-.311s-.2-.151-.312-.09l-3.785 2.096c-.029.015-.052.036-.071.061-.668-.294-1.676-1.666-1.489-2.65.014.002.026.004.04.003.024-.002.05-.007.073-.018l4.149-1.85a.23.23 0 0 0 .116-.303.23.23 0 0 0-.303-.116l-4.15 1.85c-.032.015-.059.037-.081.063-.949-.535-1.972-2.452-1.437-3.709l4.847-1.002c.102-.021.169-.123.148-.227-.011-.05-.041-.093-.085-.121s-.092-.037-.142-.026l-3.957.826c-.669.121-.969.091-1.307-.362-.622-1.059-1.147-3.02-.663-3.464 1.891-1.807 10.966 2.322 15.164-.569 2.701-1.861 5.315-5.568 9.102-7.569-7.986-1.269-14.159-2.279-15.964-7.847-4.375.239-6.242-3.449-6.442-4.769-4.18-.512-4.614-4.162-4.413-5.518-2.406-.066-4.698-3.455-4.021-6.522-1.37-.25-2.982-3.425-2.284-5.841-2.706-1.848-2.354-7.899-1.577-8.315zm22.159 31.497c-.167-.031-.326.076-.359.241s.076.326.241.359l14.015 2.747c.03.005.059.007.087.005.132-.012.246-.11.273-.247.031-.165-.076-.326-.241-.359l-14.015-2.746zm10.374-16.355c-.46-.09-.922.041-1.267.358a1.45 1.45 0 0 0-.465 1.232c.099.919.775 1.662 1.68 1.85l1.11.231c-.059.041-.118.086-.172.135a1.45 1.45 0 0 0-.465 1.232c.099.919.774 1.662 1.679 1.85l1.101.23c-.064.042-.126.087-.183.14a1.45 1.45 0 0 0-.465 1.232c.099.919.774 1.663 1.679 1.851l1.111.231c-.059.041-.119.084-.173.135a1.45 1.45 0 0 0-.464 1.232c.099.919.774 1.662 1.679 1.85l1.115.233a1.56 1.56 0 0 0-.189.145 1.45 1.45 0 0 0-.464 1.232c.099.919.774 1.663 1.679 1.851l4.436.92c.022.004.044.005.065.003a.23.23 0 0 0 .205-.182l.011-.002a.23.23 0 0 0-.177-.272l-4.436-.921a1.66 1.66 0 0 1-1.317-1.45c-.034-.321.082-.629.319-.846a.99.99 0 0 1 .868-.245l2.341.457a.23.23 0 0 0 .269-.182.23.23 0 0 0-.137-.255.2.2 0 0 0-.051-.017l-4.436-.92a1.66 1.66 0 0 1-1.316-1.451c-.034-.321.083-.629.318-.846a.99.99 0 0 1 .868-.244l1.404.273.914.19c.022.004.045.005.067.003.015-.001.03-.007.045-.012s.021-.003.028-.007c.074-.025.135-.088.15-.171a.23.23 0 0 0-.182-.27l-.939-.184-3.513-.73a1.66 1.66 0 0 1-1.317-1.45.99.99 0 0 1 1.187-1.091l2.04.397.298.062c.022.004.045.005.066.003.079-.007.149-.056.184-.128.008-.014.013-.03.018-.046l.004-.012c.023-.128-.058-.248-.183-.272l-.304-.059-4.129-.856a1.66 1.66 0 0 1-1.317-1.451.99.99 0 0 1 1.186-1.09l1.409.273.909.19c.022.004.045.005.066.003.015-.001.03-.007.045-.012s.021-.003.028-.007c.075-.025.136-.087.151-.171a.23.23 0 0 0-.182-.27l-.934-.183-3.518-.73a1.66 1.66 0 0 1-1.316-1.451.99.99 0 0 1 1.188-1.09l2.341.456a.23.23 0 0 0 .269-.182.23.23 0 0 0-.181-.27l-2.341-.456zM44.497 60.995c-.164-.035-.327.072-.361.237s.072.327.237.361l16.512 3.43c.031.005.06.007.089.005.131-.011.244-.105.272-.241.035-.166-.072-.327-.237-.361l-16.512-3.431zm-9.866-44.338c.579.063.643 1.967 5.701 6.807 7.62 7.293 26.207 12.048 31.288 19.25 3.925 5.562 1.151 13.607 5.457 17.819-.838.487-1.595.745-2.257.592-2.726-.63-3.04-2.645-3.439-5.196-.378-2.424-.807-5.172-3.442-7.331-3.848-3.154-9.235-3.856-15.472-4.666-3.153-.41-6.414-.833-9.743-1.615a28.95 28.95 0 0 1-3.373-1.014c-1.683-1.588-1.997-4.503-1.219-5.639-1.267-.547-3.842-3.538-2.53-5.704-1.185-.446-2.21-3.895-1.17-5.732-1.421-1.589-.605-6.969.198-7.571zm5.624 39.464c-.166-.035-.327.073-.36.238s.074.326.239.359h-.002l18.822 3.81c.029.005.059.007.088.005.133-.012.245-.107.273-.243.033-.165-.073-.326-.238-.359l-18.822-3.811zm-3.779-5.022c-.165-.033-.326.075-.359.24s.075.326.24.359l19.734 3.942c.028.005.058.007.087.005.132-.012.245-.109.272-.245.033-.165-.074-.326-.239-.359l-19.735-3.942zm-4.025-5.475c-.166-.034-.326.072-.36.237s.071.326.236.36l-.001.002 21.257 4.393c.031.005.061.006.09.004.132-.012.245-.107.273-.243.034-.166-.072-.327-.237-.361L32.45 45.624zm6.583-17.687c-.147-.082-.334-.028-.416.118v-.002c-.082.147-.029.334.118.416l25.893 14.5c.055.032.116.043.176.038.097-.009.189-.062.241-.154.082-.147.029-.334-.118-.416l-25.894-14.5zm1.311 4.46c-.148-.081-.334-.026-.414.122s-.026.334.122.414l18.024 9.797a.31.31 0 0 0 .172.035c.099-.009.192-.066.242-.159v.002c.081-.148.026-.334-.122-.415l-18.024-9.796zm.965 4.188c-.147-.082-.334-.03-.416.117s-.029.334.117.416l8.824 4.938c.055.032.116.044.175.039.097-.008.189-.064.241-.156.082-.147.029-.334-.117-.416l-8.824-4.938z" fill="#f9fbfb"/></svg>